<mxfile host="app.diagrams.net" modified="2022-10-14T00:17:17.602Z" agent="5.0 (Windows NT 10.0; Win64; x64) AppleWebKit/537.36 (KHTML, like Gecko) Chrome/106.0.0.0 Safari/537.36" etag="cxoCci3lzstzAsoRVoJH" version="20.4.0" type="github">
  <diagram id="6a731a19-8d31-9384-78a2-239565b7b9f0" name="Page-1">
    <mxGraphModel dx="1185" dy="662" grid="1" gridSize="10" guides="1" tooltips="1" connect="1" arrows="1" fold="1" page="1" pageScale="1" pageWidth="3300" pageHeight="2339" background="none" math="0" shadow="0">
      <root>
        <mxCell id="0" />
        <mxCell id="1" parent="0" />
        <mxCell id="BWxw6Ei6b2Xr7UirsScX-115" style="edgeStyle=orthogonalEdgeStyle;rounded=0;orthogonalLoop=1;jettySize=auto;html=1;exitX=1;exitY=0.5;exitDx=0;exitDy=0;entryX=0;entryY=0.5;entryDx=0;entryDy=0;" parent="1" target="BWxw6Ei6b2Xr7UirsScX-111" edge="1">
          <mxGeometry relative="1" as="geometry">
            <mxPoint x="900" y="92.5" as="sourcePoint" />
          </mxGeometry>
        </mxCell>
        <mxCell id="BWxw6Ei6b2Xr7UirsScX-140" style="edgeStyle=orthogonalEdgeStyle;rounded=0;orthogonalLoop=1;jettySize=auto;html=1;exitX=0.5;exitY=1;exitDx=0;exitDy=0;entryX=0.5;entryY=0;entryDx=0;entryDy=0;" parent="1" source="BWxw6Ei6b2Xr7UirsScX-111" target="BWxw6Ei6b2Xr7UirsScX-112" edge="1">
          <mxGeometry relative="1" as="geometry">
            <mxPoint x="1130.04" y="209.99" as="targetPoint" />
            <Array as="points">
              <mxPoint x="1130" y="210" />
            </Array>
          </mxGeometry>
        </mxCell>
        <mxCell id="BWxw6Ei6b2Xr7UirsScX-111" value="kiểm tra đăng nhập" style="rounded=0;whiteSpace=wrap;html=1;" parent="1" vertex="1">
          <mxGeometry x="1070" y="62.5" width="120" height="60" as="geometry" />
        </mxCell>
        <mxCell id="BWxw6Ei6b2Xr7UirsScX-118" style="edgeStyle=orthogonalEdgeStyle;rounded=0;orthogonalLoop=1;jettySize=auto;html=1;entryX=0.406;entryY=0.997;entryDx=0;entryDy=0;entryPerimeter=0;" parent="1" source="BWxw6Ei6b2Xr7UirsScX-112" edge="1">
          <mxGeometry relative="1" as="geometry">
            <Array as="points">
              <mxPoint x="803" y="260" />
            </Array>
            <mxPoint x="803.0799999999999" y="122.32000000000005" as="targetPoint" />
          </mxGeometry>
        </mxCell>
        <mxCell id="Rtoyf8BLs4PQIWwgDt2I-54" value="false" style="edgeLabel;html=1;align=center;verticalAlign=middle;resizable=0;points=[];" vertex="1" connectable="0" parent="BWxw6Ei6b2Xr7UirsScX-118">
          <mxGeometry x="0.0571" y="-3" relative="1" as="geometry">
            <mxPoint x="95" y="-7" as="offset" />
          </mxGeometry>
        </mxCell>
        <mxCell id="BWxw6Ei6b2Xr7UirsScX-142" style="edgeStyle=orthogonalEdgeStyle;rounded=0;orthogonalLoop=1;jettySize=auto;html=1;exitX=0.5;exitY=1;exitDx=0;exitDy=0;entryX=0.561;entryY=0.003;entryDx=0;entryDy=0;entryPerimeter=0;" parent="1" source="BWxw6Ei6b2Xr7UirsScX-112" edge="1">
          <mxGeometry relative="1" as="geometry">
            <mxPoint x="1140.37" y="380.29999999999995" as="targetPoint" />
          </mxGeometry>
        </mxCell>
        <mxCell id="Rtoyf8BLs4PQIWwgDt2I-55" value="true" style="edgeLabel;html=1;align=center;verticalAlign=middle;resizable=0;points=[];" vertex="1" connectable="0" parent="BWxw6Ei6b2Xr7UirsScX-142">
          <mxGeometry x="-0.2725" y="2" relative="1" as="geometry">
            <mxPoint x="15" y="-13" as="offset" />
          </mxGeometry>
        </mxCell>
        <mxCell id="BWxw6Ei6b2Xr7UirsScX-112" value="query=1" style="rhombus;whiteSpace=wrap;html=1;" parent="1" vertex="1">
          <mxGeometry x="1100" y="210" width="80" height="80" as="geometry" />
        </mxCell>
        <mxCell id="BWxw6Ei6b2Xr7UirsScX-125" style="edgeStyle=orthogonalEdgeStyle;rounded=0;orthogonalLoop=1;jettySize=auto;html=1;exitX=0.5;exitY=1;exitDx=0;exitDy=0;entryX=0.667;entryY=0.005;entryDx=0;entryDy=0;entryPerimeter=0;" parent="1" target="BWxw6Ei6b2Xr7UirsScX-122" edge="1">
          <mxGeometry relative="1" as="geometry">
            <mxPoint x="1130" y="480" as="sourcePoint" />
          </mxGeometry>
        </mxCell>
        <mxCell id="BWxw6Ei6b2Xr7UirsScX-126" style="edgeStyle=orthogonalEdgeStyle;rounded=0;orthogonalLoop=1;jettySize=auto;html=1;exitX=0.5;exitY=1;exitDx=0;exitDy=0;" parent="1" source="BWxw6Ei6b2Xr7UirsScX-122" target="BWxw6Ei6b2Xr7UirsScX-124" edge="1">
          <mxGeometry relative="1" as="geometry" />
        </mxCell>
        <mxCell id="BWxw6Ei6b2Xr7UirsScX-122" value="kiểm tra dữ liệu&amp;nbsp;" style="rounded=0;whiteSpace=wrap;html=1;" parent="1" vertex="1">
          <mxGeometry x="1050" y="540" width="120" height="60" as="geometry" />
        </mxCell>
        <mxCell id="BWxw6Ei6b2Xr7UirsScX-127" style="edgeStyle=orthogonalEdgeStyle;rounded=0;orthogonalLoop=1;jettySize=auto;html=1;exitX=0;exitY=0.5;exitDx=0;exitDy=0;" parent="1" source="BWxw6Ei6b2Xr7UirsScX-124" edge="1">
          <mxGeometry relative="1" as="geometry">
            <Array as="points">
              <mxPoint x="930" y="720" />
              <mxPoint x="930" y="430" />
            </Array>
            <mxPoint x="1055" y="430.0000000000002" as="targetPoint" />
          </mxGeometry>
        </mxCell>
        <mxCell id="BWxw6Ei6b2Xr7UirsScX-131" style="edgeStyle=orthogonalEdgeStyle;rounded=0;orthogonalLoop=1;jettySize=auto;html=1;exitX=0.5;exitY=1;exitDx=0;exitDy=0;" parent="1" source="BWxw6Ei6b2Xr7UirsScX-124" target="BWxw6Ei6b2Xr7UirsScX-130" edge="1">
          <mxGeometry relative="1" as="geometry" />
        </mxCell>
        <mxCell id="BWxw6Ei6b2Xr7UirsScX-124" value="" style="rhombus;whiteSpace=wrap;html=1;" parent="1" vertex="1">
          <mxGeometry x="1070" y="680" width="80" height="80" as="geometry" />
        </mxCell>
        <mxCell id="BWxw6Ei6b2Xr7UirsScX-132" style="edgeStyle=orthogonalEdgeStyle;rounded=0;orthogonalLoop=1;jettySize=auto;html=1;entryX=0.5;entryY=0;entryDx=0;entryDy=0;entryPerimeter=0;" parent="1" source="BWxw6Ei6b2Xr7UirsScX-130" edge="1">
          <mxGeometry relative="1" as="geometry">
            <mxPoint x="1110" y="980" as="targetPoint" />
          </mxGeometry>
        </mxCell>
        <mxCell id="BWxw6Ei6b2Xr7UirsScX-130" value="custom&amp;nbsp; journey map" style="shape=document;whiteSpace=wrap;html=1;boundedLbl=1;" parent="1" vertex="1">
          <mxGeometry x="1050" y="820" width="120" height="80" as="geometry" />
        </mxCell>
        <mxCell id="BWxw6Ei6b2Xr7UirsScX-138" style="edgeStyle=orthogonalEdgeStyle;rounded=0;orthogonalLoop=1;jettySize=auto;html=1;exitX=1;exitY=0.5;exitDx=0;exitDy=0;entryX=0.014;entryY=0.397;entryDx=0;entryDy=0;entryPerimeter=0;" parent="1" target="BWxw6Ei6b2Xr7UirsScX-135" edge="1">
          <mxGeometry relative="1" as="geometry">
            <mxPoint x="460" y="1255.0000000000002" as="sourcePoint" />
          </mxGeometry>
        </mxCell>
        <mxCell id="BWxw6Ei6b2Xr7UirsScX-180" style="edgeStyle=orthogonalEdgeStyle;rounded=0;orthogonalLoop=1;jettySize=auto;html=1;entryX=0.5;entryY=1;entryDx=0;entryDy=0;" parent="1" source="BWxw6Ei6b2Xr7UirsScX-135" target="BWxw6Ei6b2Xr7UirsScX-145" edge="1">
          <mxGeometry relative="1" as="geometry" />
        </mxCell>
        <mxCell id="BWxw6Ei6b2Xr7UirsScX-135" value="kiểm tra thông tin&amp;nbsp;" style="rounded=0;whiteSpace=wrap;html=1;" parent="1" vertex="1">
          <mxGeometry x="580" y="1225" width="130" height="75" as="geometry" />
        </mxCell>
        <mxCell id="BWxw6Ei6b2Xr7UirsScX-181" style="edgeStyle=orthogonalEdgeStyle;rounded=0;orthogonalLoop=1;jettySize=auto;html=1;entryX=0.565;entryY=0.014;entryDx=0;entryDy=0;entryPerimeter=0;" parent="1" source="BWxw6Ei6b2Xr7UirsScX-145" edge="1">
          <mxGeometry relative="1" as="geometry">
            <mxPoint x="400.4000000000001" y="1216.1200000000001" as="targetPoint" />
          </mxGeometry>
        </mxCell>
        <mxCell id="Rtoyf8BLs4PQIWwgDt2I-58" value="false" style="edgeLabel;html=1;align=center;verticalAlign=middle;resizable=0;points=[];" vertex="1" connectable="0" parent="BWxw6Ei6b2Xr7UirsScX-181">
          <mxGeometry x="-0.2019" relative="1" as="geometry">
            <mxPoint x="15" y="-10" as="offset" />
          </mxGeometry>
        </mxCell>
        <mxCell id="Rtoyf8BLs4PQIWwgDt2I-93" style="edgeStyle=orthogonalEdgeStyle;rounded=0;orthogonalLoop=1;jettySize=auto;html=1;entryX=0.381;entryY=1.043;entryDx=0;entryDy=0;entryPerimeter=0;" edge="1" parent="1" source="BWxw6Ei6b2Xr7UirsScX-145" target="Rtoyf8BLs4PQIWwgDt2I-91">
          <mxGeometry relative="1" as="geometry" />
        </mxCell>
        <mxCell id="BWxw6Ei6b2Xr7UirsScX-145" value="query=1" style="rhombus;whiteSpace=wrap;html=1;" parent="1" vertex="1">
          <mxGeometry x="605" y="1080" width="80" height="80" as="geometry" />
        </mxCell>
        <mxCell id="Rtoyf8BLs4PQIWwgDt2I-56" value="false" style="text;html=1;align=center;verticalAlign=middle;resizable=0;points=[];autosize=1;strokeColor=none;fillColor=none;" vertex="1" parent="1">
          <mxGeometry x="985" y="695" width="50" height="30" as="geometry" />
        </mxCell>
        <mxCell id="Rtoyf8BLs4PQIWwgDt2I-57" value="true" style="text;html=1;align=center;verticalAlign=middle;resizable=0;points=[];autosize=1;strokeColor=none;fillColor=none;" vertex="1" parent="1">
          <mxGeometry x="1110" y="775" width="40" height="30" as="geometry" />
        </mxCell>
        <mxCell id="Rtoyf8BLs4PQIWwgDt2I-73" value="true" style="text;html=1;align=center;verticalAlign=middle;resizable=0;points=[];autosize=1;strokeColor=none;fillColor=none;" vertex="1" parent="1">
          <mxGeometry x="650" y="1035" width="40" height="30" as="geometry" />
        </mxCell>
        <mxCell id="Rtoyf8BLs4PQIWwgDt2I-81" style="edgeStyle=orthogonalEdgeStyle;rounded=0;orthogonalLoop=1;jettySize=auto;html=1;entryX=0.389;entryY=1.036;entryDx=0;entryDy=0;entryPerimeter=0;" edge="1" parent="1" target="Rtoyf8BLs4PQIWwgDt2I-79">
          <mxGeometry relative="1" as="geometry">
            <mxPoint x="750" y="780" as="sourcePoint" />
          </mxGeometry>
        </mxCell>
        <mxCell id="Rtoyf8BLs4PQIWwgDt2I-82" style="edgeStyle=orthogonalEdgeStyle;rounded=0;orthogonalLoop=1;jettySize=auto;html=1;entryX=0.5;entryY=1;entryDx=0;entryDy=0;" edge="1" parent="1" source="Rtoyf8BLs4PQIWwgDt2I-79" target="Rtoyf8BLs4PQIWwgDt2I-80">
          <mxGeometry relative="1" as="geometry" />
        </mxCell>
        <mxCell id="Rtoyf8BLs4PQIWwgDt2I-79" value="kiểm tra dữ liệu&amp;nbsp;" style="rounded=0;whiteSpace=wrap;html=1;" vertex="1" parent="1">
          <mxGeometry x="710" y="600" width="120" height="60" as="geometry" />
        </mxCell>
        <mxCell id="Rtoyf8BLs4PQIWwgDt2I-83" style="edgeStyle=orthogonalEdgeStyle;rounded=0;orthogonalLoop=1;jettySize=auto;html=1;entryX=0;entryY=0.75;entryDx=0;entryDy=0;" edge="1" parent="1" source="Rtoyf8BLs4PQIWwgDt2I-80">
          <mxGeometry relative="1" as="geometry">
            <mxPoint x="675.3333333333335" y="824" as="targetPoint" />
            <Array as="points">
              <mxPoint x="590" y="480" />
              <mxPoint x="590" y="650" />
              <mxPoint x="675" y="650" />
            </Array>
          </mxGeometry>
        </mxCell>
        <mxCell id="Rtoyf8BLs4PQIWwgDt2I-88" style="edgeStyle=orthogonalEdgeStyle;rounded=0;orthogonalLoop=1;jettySize=auto;html=1;entryX=0.5;entryY=1;entryDx=0;entryDy=0;" edge="1" parent="1" source="Rtoyf8BLs4PQIWwgDt2I-80">
          <mxGeometry relative="1" as="geometry">
            <mxPoint x="770" y="370" as="targetPoint" />
          </mxGeometry>
        </mxCell>
        <mxCell id="Rtoyf8BLs4PQIWwgDt2I-80" value="" style="rhombus;whiteSpace=wrap;html=1;" vertex="1" parent="1">
          <mxGeometry x="730" y="440" width="80" height="80" as="geometry" />
        </mxCell>
        <mxCell id="Rtoyf8BLs4PQIWwgDt2I-84" value="false" style="text;html=1;align=center;verticalAlign=middle;resizable=0;points=[];autosize=1;strokeColor=none;fillColor=none;" vertex="1" parent="1">
          <mxGeometry x="650" y="480" width="50" height="30" as="geometry" />
        </mxCell>
        <mxCell id="Rtoyf8BLs4PQIWwgDt2I-89" value="true" style="text;html=1;align=center;verticalAlign=middle;resizable=0;points=[];autosize=1;strokeColor=none;fillColor=none;" vertex="1" parent="1">
          <mxGeometry x="780" y="395" width="40" height="30" as="geometry" />
        </mxCell>
        <mxCell id="Rtoyf8BLs4PQIWwgDt2I-99" style="edgeStyle=orthogonalEdgeStyle;rounded=0;orthogonalLoop=1;jettySize=auto;html=1;entryX=0.5;entryY=1;entryDx=0;entryDy=0;" edge="1" parent="1" source="Rtoyf8BLs4PQIWwgDt2I-91">
          <mxGeometry relative="1" as="geometry">
            <mxPoint x="750" y="840" as="targetPoint" />
          </mxGeometry>
        </mxCell>
        <mxCell id="Rtoyf8BLs4PQIWwgDt2I-111" style="edgeStyle=orthogonalEdgeStyle;rounded=0;orthogonalLoop=1;jettySize=auto;html=1;" edge="1" parent="1" source="Rtoyf8BLs4PQIWwgDt2I-91" target="Rtoyf8BLs4PQIWwgDt2I-109">
          <mxGeometry relative="1" as="geometry" />
        </mxCell>
        <mxCell id="Rtoyf8BLs4PQIWwgDt2I-91" value="" style="verticalLabelPosition=bottom;verticalAlign=top;html=1;shape=mxgraph.flowchart.summing_function;" vertex="1" parent="1">
          <mxGeometry x="615" y="930" width="70" height="70" as="geometry" />
        </mxCell>
        <mxCell id="Rtoyf8BLs4PQIWwgDt2I-94" value="end" style="strokeWidth=2;html=1;shape=mxgraph.flowchart.terminator;whiteSpace=wrap;" vertex="1" parent="1">
          <mxGeometry x="720" y="310" width="100" height="60" as="geometry" />
        </mxCell>
        <mxCell id="Rtoyf8BLs4PQIWwgDt2I-108" style="edgeStyle=orthogonalEdgeStyle;rounded=0;orthogonalLoop=1;jettySize=auto;html=1;entryX=0;entryY=0.5;entryDx=0;entryDy=0;" edge="1" parent="1" source="Rtoyf8BLs4PQIWwgDt2I-96" target="Rtoyf8BLs4PQIWwgDt2I-107">
          <mxGeometry relative="1" as="geometry" />
        </mxCell>
        <mxCell id="Rtoyf8BLs4PQIWwgDt2I-96" value="start" style="strokeWidth=2;html=1;shape=mxgraph.flowchart.terminator;whiteSpace=wrap;" vertex="1" parent="1">
          <mxGeometry x="110" y="1225" width="100" height="60" as="geometry" />
        </mxCell>
        <mxCell id="Rtoyf8BLs4PQIWwgDt2I-106" style="edgeStyle=orthogonalEdgeStyle;rounded=0;orthogonalLoop=1;jettySize=auto;html=1;" edge="1" parent="1" source="Rtoyf8BLs4PQIWwgDt2I-97" target="Rtoyf8BLs4PQIWwgDt2I-105">
          <mxGeometry relative="1" as="geometry" />
        </mxCell>
        <mxCell id="Rtoyf8BLs4PQIWwgDt2I-97" value="start" style="strokeWidth=2;html=1;shape=mxgraph.flowchart.terminator;whiteSpace=wrap;" vertex="1" parent="1">
          <mxGeometry x="500" y="63" width="100" height="60" as="geometry" />
        </mxCell>
        <mxCell id="Rtoyf8BLs4PQIWwgDt2I-98" value="end" style="strokeWidth=2;html=1;shape=mxgraph.flowchart.terminator;whiteSpace=wrap;" vertex="1" parent="1">
          <mxGeometry x="1060" y="975" width="100" height="60" as="geometry" />
        </mxCell>
        <mxCell id="Rtoyf8BLs4PQIWwgDt2I-103" value="nhập, xóa , sửa dữ liệu&amp;nbsp;" style="shape=parallelogram;html=1;strokeWidth=2;perimeter=parallelogramPerimeter;whiteSpace=wrap;rounded=1;arcSize=12;size=0.23;" vertex="1" parent="1">
          <mxGeometry x="670" y="775" width="180" height="60" as="geometry" />
        </mxCell>
        <mxCell id="Rtoyf8BLs4PQIWwgDt2I-104" value="chọn chức năng khảo sát&amp;nbsp;&lt;br&gt;và nhâp kế quả khảo sát&amp;nbsp;" style="shape=parallelogram;html=1;strokeWidth=2;perimeter=parallelogramPerimeter;whiteSpace=wrap;rounded=1;arcSize=12;size=0.23;" vertex="1" parent="1">
          <mxGeometry x="1030" y="390" width="200" height="90" as="geometry" />
        </mxCell>
        <mxCell id="Rtoyf8BLs4PQIWwgDt2I-105" value="nhập tên và tài khoản&amp;nbsp;" style="shape=parallelogram;html=1;strokeWidth=2;perimeter=parallelogramPerimeter;whiteSpace=wrap;rounded=1;arcSize=12;size=0.23;" vertex="1" parent="1">
          <mxGeometry x="740" y="60" width="170" height="60" as="geometry" />
        </mxCell>
        <mxCell id="Rtoyf8BLs4PQIWwgDt2I-107" value="nhập thông tin tài khoản&amp;nbsp;" style="shape=parallelogram;html=1;strokeWidth=2;perimeter=parallelogramPerimeter;whiteSpace=wrap;rounded=1;arcSize=12;size=0.23;" vertex="1" parent="1">
          <mxGeometry x="290" y="1220" width="190" height="60" as="geometry" />
        </mxCell>
        <mxCell id="Rtoyf8BLs4PQIWwgDt2I-112" style="edgeStyle=orthogonalEdgeStyle;rounded=0;orthogonalLoop=1;jettySize=auto;html=1;entryX=0.5;entryY=1;entryDx=0;entryDy=0;entryPerimeter=0;" edge="1" parent="1" source="Rtoyf8BLs4PQIWwgDt2I-109" target="Rtoyf8BLs4PQIWwgDt2I-110">
          <mxGeometry relative="1" as="geometry" />
        </mxCell>
        <mxCell id="Rtoyf8BLs4PQIWwgDt2I-109" value="Xem thống kê&amp;nbsp;" style="shape=parallelogram;html=1;strokeWidth=2;perimeter=parallelogramPerimeter;whiteSpace=wrap;rounded=1;arcSize=12;size=0.23;" vertex="1" parent="1">
          <mxGeometry x="350" y="775" width="200" height="70" as="geometry" />
        </mxCell>
        <mxCell id="Rtoyf8BLs4PQIWwgDt2I-110" value="end" style="strokeWidth=2;html=1;shape=mxgraph.flowchart.terminator;whiteSpace=wrap;" vertex="1" parent="1">
          <mxGeometry x="400" y="580" width="100" height="60" as="geometry" />
        </mxCell>
      </root>
    </mxGraphModel>
  </diagram>
</mxfile>
